<svg idth="24" height="24" viewBox="0 0 24 24" fill="none" xmlns="http://www.w3.org/2000/svg">
<path d="M18.9 4.23C17.8745 3.05943 17.3094 1.55614 17.31 0H12.675V18.6C12.6391 19.6065 12.2142 20.5599 11.4895 21.2594C10.7648 21.9589 9.79699 22.3498 8.78987 22.35C6.65987 22.35 4.88987 20.61 4.88987 18.45C4.88987 15.87 7.37987 13.935 9.94487 14.73V9.99C4.76987 9.3 0.239868 13.32 0.239868 18.45C0.239868 23.445 4.37987 27 8.77487 27C13.4849 27 17.31 23.175 17.31 18.45V9.015C19.1894 10.3648 21.4459 11.0889 23.7599 11.085V6.45C23.7599 6.45 20.9399 6.585 18.9 4.23Z" fill="url(#paint0_linear)"/>
<defs>
    <linearGradient id="paint0_linear" x1="0.24" y1="13.5" x2="23.76" y2="13.5" gradientUnits="userSpaceOnUse">
    <stop stop-color="#FC4A1A"/>
    <stop offset="1" stop-color="#F7B733"/>
    </linearGradient>
</defs>
</svg>

